# xmcd
#
# Track frame offsets: 
#        150
#        11487
#        26787
#        39357
#        50587
#        64782
#        77925
#        92802
#        109617
#        122762
#        135312
#        149105
#        164345
#        178982
#        191865
#        209150
#        219430
#        232830
#        246117
#        263445
#        273240
#        284635
#
# Disc length: 3928 seconds
#
# Revision: 0
# Processed by: cddbd v1.5.2PL0 Copyright (c) Steve Scherf et al.
# Submitted via: ExactAudioCopy v0.95a4
#
DISCID=4d0f5616
DTITLE=Pete Rugolo and His Orchestra - Rugolomania and New Sounds
DYEAR=1999
DGENRE=Easy Listening
TTITLE0=Gone With The Wind
TTITLE1=In A Sentimental Mood
TTITLE2=Bobbin' With Bob
TTITLE3=Four-Twenty, A.M.
TTITLE4=Little White Lies
TTITLE5=Me Next!
TTITLE6=Bongo Dance
TTITLE7=Intermezzo
TTITLE8=Montevideo
TTITLE9=I've Had My Moments
TTITLE10=Everything I Have Is Yours
TTITLE11=Hornorama
TTITLE12=Shave And A Haircut
TTITLE13=Latin Nocturne
TTITLE14=The Shrike
TTITLE15=Poinciana
TTITLE16=Manhattan Mambo
TTITLE17=Quiet Village (Cha-Cha-Cha)
TTITLE18=When Your Lover Has Gone
TTITLE19=When You're Smiling
TTITLE20=Come Back Little Rocket
TTITLE21=You Stepped Out Of A Dream
EXTD=
EXTT0=
EXTT1=
EXTT2=
EXTT3=
EXTT4=
EXTT5=
EXTT6=
EXTT7=
EXTT8=
EXTT9=
EXTT10=
EXTT11=
EXTT12=
EXTT13=
EXTT14=
EXTT15=
EXTT16=
EXTT17=
EXTT18=
EXTT19=
EXTT20=
EXTT21=
PLAYORDER=
